<svg width="31" height="30" viewBox="0 0 31 30" fill="none" xmlns="http://www.w3.org/2000/svg"><path d="M24.875 1.875H6.125C5.60645 1.875 5.1875 2.29395 5.1875 2.8125V27.1875C5.1875 27.7061 5.60645 28.125 6.125 28.125H24.875C25.3936 28.125 25.8125 27.7061 25.8125 27.1875V2.8125C25.8125 2.29395 25.3936 1.875 24.875 1.875ZM17.2578 3.98438H20.0703V10.1338L18.708 9.14062L17.2578 10.1777V3.98438ZM7.29688 26.0156V3.98438H15.5V12.6826C15.5 12.7793 15.5293 12.876 15.5879 12.9551C15.6235 13.0054 15.6686 13.0481 15.7208 13.0808C15.773 13.1135 15.8312 13.1355 15.8919 13.1456C15.9527 13.1557 16.0148 13.1536 16.0748 13.1395C16.1347 13.1254 16.1913 13.0996 16.2412 13.0635L18.6963 11.3086L21.0811 13.0488C21.1602 13.1074 21.2568 13.1396 21.3564 13.1396C21.6143 13.1396 21.8252 12.9287 21.8252 12.6709V3.98438H23.7002V26.0156H7.29688Z" fill="#7CB305"/><path d="M20.0703 10.1338V3.98438H17.2578V10.1777L18.708 9.14062L20.0703 10.1338Z" fill="#E6F7FF"/><path d="M21.8252 3.98438V12.6709C21.8252 12.9287 21.6143 13.1396 21.3564 13.1396C21.2568 13.1396 21.1602 13.1074 21.0811 13.0488L18.6963 11.3086L16.2412 13.0635C16.1913 13.0996 16.1347 13.1254 16.0748 13.1395C16.0148 13.1536 15.9527 13.1557 15.8919 13.1456C15.8312 13.1355 15.773 13.1135 15.7208 13.0808C15.6686 13.0481 15.6235 13.0054 15.5879 12.9551C15.5293 12.876 15.5 12.7793 15.5 12.6826V3.98438H7.29688V26.0156H23.7002V3.98438H21.8252Z" fill="#E6F7FF"/></svg>