<svg width="52" height="42" viewBox="0 0 52 42" fill="none" xmlns="http://www.w3.org/2000/svg">    <mask id="path-1-inside-1_7_427" fill="white">    <path d="M0 0H52V42H0V0Z"/>    </mask>    <rect x="8.5" y="1.5" width="37" height="37" rx="2.5" fill="#40A9FF" stroke="#1890FF"/>    <path d="M39.4255 30.7069L31.3099 22.5913C32.5692 20.9632 33.2505 18.9725 33.2505 16.8788C33.2505 14.3725 32.2724 12.0225 30.5036 10.2507C28.7349 8.4788 26.3786 7.5038 23.8755 7.5038C21.3724 7.5038 19.0161 8.48192 17.2474 10.2507C15.4755 12.0194 14.5005 14.3725 14.5005 16.8788C14.5005 19.3819 15.4786 21.7382 17.2474 23.5069C19.0161 25.2788 21.3692 26.2538 23.8755 26.2538C25.9692 26.2538 27.9567 25.5725 29.5849 24.3163L37.7005 32.4288C37.7243 32.4526 37.7525 32.4715 37.7836 32.4844C37.8147 32.4973 37.8481 32.5039 37.8817 32.5039C37.9154 32.5039 37.9487 32.4973 37.9798 32.4844C38.0109 32.4715 38.0392 32.4526 38.063 32.4288L39.4255 31.0694C39.4493 31.0456 39.4682 31.0174 39.4811 30.9863C39.494 30.9552 39.5006 30.9218 39.5006 30.8882C39.5006 30.8545 39.494 30.8212 39.4811 30.7901C39.4682 30.759 39.4493 30.7307 39.4255 30.7069ZM28.8255 21.8288C27.5005 23.1507 25.7442 23.8788 23.8755 23.8788C22.0067 23.8788 20.2505 23.1507 18.9255 21.8288C17.6036 20.5038 16.8755 18.7475 16.8755 16.8788C16.8755 15.01 17.6036 13.2507 18.9255 11.9288C20.2505 10.6069 22.0067 9.8788 23.8755 9.8788C25.7442 9.8788 27.5036 10.6038 28.8255 11.9288C30.1474 13.2538 30.8755 15.01 30.8755 16.8788C30.8755 18.7475 30.1474 20.5069 28.8255 21.8288Z" fill="#DEEDF3"/>    </svg>