<svg width="28" height="28" viewBox="0 0 28 28" fill="none" xmlns="http://www.w3.org/2000/svg">
<path d="M16.1056 4.50107L5.17632 15.4304L12.5701 22.8241L23.4994 11.8948L22.8595 5.14091L16.1056 4.50107ZM18.5939 11.8128C17.2677 11.8128 16.1876 10.7327 16.1876 9.40654C16.1876 8.08036 17.2677 7.00029 18.5939 7.00029C19.9201 7.00029 21.0001 8.08036 21.0001 9.40654C21.0001 10.7327 19.9201 11.8128 18.5939 11.8128Z" fill="#E6F7FF"/>
<path d="M18.5938 7C17.2676 7 16.1875 8.08008 16.1875 9.40625C16.1875 10.7324 17.2676 11.8125 18.5938 11.8125C19.9199 11.8125 21 10.7324 21 9.40625C21 8.08008 19.9199 7 18.5938 7ZM18.5938 10.2812C18.1098 10.2812 17.7188 9.89023 17.7188 9.40625C17.7188 8.92227 18.1098 8.53125 18.5938 8.53125C19.0777 8.53125 19.4688 8.92227 19.4688 9.40625C19.4688 9.89023 19.0777 10.2812 18.5938 10.2812Z" fill="#40A9FF"/>
<path d="M25.6484 12.5453L24.839 3.99766C24.798 3.55469 24.4453 3.20469 24.0023 3.16094L15.4547 2.35156H15.4437C15.3562 2.35156 15.2879 2.37891 15.2359 2.43086L2.43084 15.2359C2.40549 15.2612 2.38538 15.2913 2.37166 15.3244C2.35794 15.3574 2.35088 15.3929 2.35088 15.4287C2.35088 15.4645 2.35794 15.5 2.37166 15.5331C2.38538 15.5661 2.40549 15.5962 2.43084 15.6215L12.3785 25.5691C12.404 25.5946 12.4342 25.6147 12.4676 25.6283C12.5009 25.642 12.5366 25.6488 12.5726 25.6484C12.6465 25.6484 12.7148 25.6211 12.7668 25.5691L25.5719 12.7641C25.6265 12.7066 25.6539 12.6273 25.6484 12.5453ZM12.5699 22.8238L5.17616 15.4301L16.1055 4.50078L22.8594 5.14062L23.4992 11.8945L12.5699 22.8238Z" fill="#40A9FF"/>
</svg>
