<svg width="28" height="28" viewBox="0 0 28 28" fill="none" xmlns="http://www.w3.org/2000/svg">
<path d="M14 3.82812C8.38359 3.82812 3.82812 8.38359 3.82812 14C3.82812 19.6164 8.38359 24.1719 14 24.1719C19.6164 24.1719 24.1719 19.6164 24.1719 14C24.1719 8.38359 19.6164 3.82812 14 3.82812ZM19.0422 11.4215L14.175 18.148C14.1549 18.176 14.1284 18.1988 14.0977 18.2145C14.067 18.2302 14.0331 18.2383 13.9986 18.2383C13.9642 18.2383 13.9302 18.2302 13.8996 18.2145C13.8689 18.1988 13.8424 18.176 13.8223 18.148L8.95508 11.4215C8.85117 11.2766 8.95508 11.0742 9.13281 11.0742H10.4152C10.6969 11.0742 10.9594 11.2082 11.1234 11.4352L14 15.4109L16.8766 11.4352C17.0406 11.2082 17.3059 11.0742 17.5848 11.0742H18.8672C19.0449 11.0742 19.1488 11.2766 19.0422 11.4215Z" fill="#E6F7FF"/>
<path d="M14 1.75C7.23516 1.75 1.75 7.23516 1.75 14C1.75 20.7648 7.23516 26.25 14 26.25C20.7648 26.25 26.25 20.7648 26.25 14C26.25 7.23516 20.7648 1.75 14 1.75ZM14 24.1719C8.38359 24.1719 3.82812 19.6164 3.82812 14C3.82812 8.38359 8.38359 3.82812 14 3.82812C19.6164 3.82812 24.1719 8.38359 24.1719 14C24.1719 19.6164 19.6164 24.1719 14 24.1719Z" fill="#40A9FF"/>
<path d="M18.8672 11.0742H17.5848C17.3059 11.0742 17.0407 11.2082 16.8766 11.4352L14 15.4109L11.1235 11.4352C10.9594 11.2082 10.6969 11.0742 10.4153 11.0742H9.13284C8.9551 11.0742 8.85119 11.2766 8.9551 11.4215L13.8223 18.148C13.9098 18.2684 14.0875 18.2684 14.175 18.148L19.0422 11.4215C19.1489 11.2766 19.045 11.0742 18.8672 11.0742Z" fill="#40A9FF"/>
</svg>
