<svg width="28" height="28" viewBox="0 0 28 28" fill="none" xmlns="http://www.w3.org/2000/svg">
<path d="M14 3.82812C8.38359 3.82812 3.82812 8.38359 3.82812 14C3.82812 19.6164 8.38359 24.1719 14 24.1719C19.6164 24.1719 24.1719 19.6164 24.1719 14C24.1719 8.38359 19.6164 3.82812 14 3.82812ZM18.6977 18.241C18.7305 18.282 18.7496 18.3312 18.7496 18.3832C18.7496 18.5062 18.6512 18.602 18.5309 18.602L16.7262 18.5938L14.0109 15.3562L11.2957 18.5965L9.48828 18.6047C9.36797 18.6047 9.26953 18.5063 9.26953 18.3859C9.26953 18.334 9.28867 18.2848 9.32148 18.2438L12.8789 14.0082L9.32148 9.76992C9.28844 9.72985 9.27011 9.67967 9.26953 9.62773C9.26953 9.50469 9.36797 9.40898 9.48828 9.40898L11.2957 9.41719L14.0109 12.6547L16.7289 9.41445L18.5336 9.40625C18.6539 9.40625 18.7523 9.50469 18.7523 9.625C18.7523 9.67695 18.7359 9.72891 18.7031 9.76719L15.1457 14.0055L18.6977 18.241Z" fill="#E6F7FF"/>
<path d="M14 1.75C7.23516 1.75 1.75 7.23516 1.75 14C1.75 20.7648 7.23516 26.25 14 26.25C20.7648 26.25 26.25 20.7648 26.25 14C26.25 7.23516 20.7648 1.75 14 1.75ZM14 24.1719C8.38359 24.1719 3.82812 19.6164 3.82812 14C3.82812 8.38359 8.38359 3.82812 14 3.82812C19.6164 3.82812 24.1719 8.38359 24.1719 14C24.1719 19.6164 19.6164 24.1719 14 24.1719Z" fill="#8C8C8C"/>
<path d="M18.7523 9.625C18.7523 9.50469 18.6539 9.40625 18.5336 9.40625L16.7289 9.41445L14.0109 12.6547L11.2957 9.41719L9.48828 9.40899C9.36797 9.40899 9.26953 9.50469 9.26953 9.62774C9.26953 9.67969 9.28867 9.72891 9.32148 9.76992L12.8789 14.0082L9.32148 18.2437C9.28844 18.2838 9.27011 18.334 9.26953 18.3859C9.26953 18.5063 9.36797 18.6047 9.48828 18.6047L11.2957 18.5965L14.0109 15.3562L16.7262 18.5938L18.5309 18.602C18.6512 18.602 18.7496 18.5063 18.7496 18.3832C18.7496 18.3313 18.7305 18.282 18.6977 18.241L15.1457 14.0055L18.7031 9.76719C18.7359 9.72891 18.7523 9.67695 18.7523 9.625Z" fill="#8C8C8C"/>
</svg>
